<svg class="main-svg" xmlns="http://www.w3.org/2000/svg" xmlns:xlink="http://www.w3.org/1999/xlink" width="700" height="450" style="" viewBox="0 0 700 450"><rect x="0" y="0" width="700" height="450" style="fill: rgb(255, 255, 255); fill-opacity: 1;"/><defs id="defs-15160f"><g class="clips"><clipPath id="clip15160fxyplot" class="plotclip"><rect width="580" height="330"/></clipPath><clipPath class="axesclip" id="clip15160fx"><rect x="60" y="0" width="580" height="450"/></clipPath><clipPath class="axesclip" id="clip15160fy"><rect x="0" y="60" width="700" height="330"/></clipPath><clipPath class="axesclip" id="clip15160fxy"><rect x="60" y="60" width="580" height="330"/></clipPath></g><g class="gradients"/></defs><g class="bglayer"/><g class="layer-below"><g class="imagelayer"/><g class="shapelayer"/></g><g class="cartesianlayer"><g class="subplot xy"><g class="layer-subplot"><g class="shapelayer"/><g class="imagelayer"/></g><g class="gridlayer"><g class="x"><path class="xgrid crisp" transform="translate(131.34,0)" d="M0,60v330" style="stroke: rgb(238, 238, 238); stroke-opacity: 1; stroke-width: 1px;"/><path class="xgrid crisp" transform="translate(202.68,0)" d="M0,60v330" style="stroke: rgb(238, 238, 238); stroke-opacity: 1; stroke-width: 1px;"/><path class="xgrid crisp" transform="translate(274.02,0)" d="M0,60v330" style="stroke: rgb(238, 238, 238); stroke-opacity: 1; stroke-width: 1px;"/><path class="xgrid crisp" transform="translate(345.36,0)" d="M0,60v330" style="stroke: rgb(238, 238, 238); stroke-opacity: 1; stroke-width: 1px;"/><path class="xgrid crisp" transform="translate(416.7,0)" d="M0,60v330" style="stroke: rgb(238, 238, 238); stroke-opacity: 1; stroke-width: 1px;"/><path class="xgrid crisp" transform="translate(488.04,0)" d="M0,60v330" style="stroke: rgb(238, 238, 238); stroke-opacity: 1; stroke-width: 1px;"/><path class="xgrid crisp" transform="translate(559.38,0)" d="M0,60v330" style="stroke: rgb(238, 238, 238); stroke-opacity: 1; stroke-width: 1px;"/><path class="xgrid crisp" transform="translate(630.73,0)" d="M0,60v330" style="stroke: rgb(238, 238, 238); stroke-opacity: 1; stroke-width: 1px;"/></g><g class="y"><path class="ygrid crisp" transform="translate(0,305.27)" d="M60,0h580" style="stroke: rgb(238, 238, 238); stroke-opacity: 1; stroke-width: 1px;"/><path class="ygrid crisp" transform="translate(0,237.05)" d="M60,0h580" style="stroke: rgb(238, 238, 238); stroke-opacity: 1; stroke-width: 1px;"/><path class="ygrid crisp" transform="translate(0,168.82)" d="M60,0h580" style="stroke: rgb(238, 238, 238); stroke-opacity: 1; stroke-width: 1px;"/><path class="ygrid crisp" transform="translate(0,100.6)" d="M60,0h580" style="stroke: rgb(238, 238, 238); stroke-opacity: 1; stroke-width: 1px;"/></g></g><g class="zerolinelayer"><path class="xzl zl crisp" transform="translate(60,0)" d="M0,60v330" style="stroke: rgb(68, 68, 68); stroke-opacity: 1; stroke-width: 1px;"/><path class="yzl zl crisp" transform="translate(0,373.5)" d="M60,0h580" style="stroke: rgb(68, 68, 68); stroke-opacity: 1; stroke-width: 1px;"/></g><path class="xlines-below"/><path class="ylines-below"/><g class="overlines-below"/><g class="xaxislayer-below"/><g class="yaxislayer-below"/><g class="overaxes-below"/><g class="plot" transform="translate(60, 60)" clip-path="url(#clip15160fxyplot)"><g class="scatterlayer mlayer"><g class="trace scatter trace243f61" style="stroke-miterlimit: 2; opacity: 1;"><g class="fills"/><g class="errorbars"/><g class="lines"><path class="js-line" d="M0,313.5L0.71,22.75L1.43,89.94L2.14,116.43L2.85,69.88L3.57,100.02L4.28,161.27L4.99,157.26L5.71,16.5L6.42,220.57L7.13,147.42L8.56,212.32L9.27,136.99L10.7,118.46L11.41,202.24L12.13,214.68L12.84,155.76L13.55,221.93L14.27,111.43L15.69,140.9L16.41,76.69L17.12,215.25L17.84,148.22L18.55,246.74L19.26,153.29L20.69,192.43L21.4,220.55L22.12,184.8L22.83,232.3L23.54,244.62L24.26,225.3L24.97,201.44L25.68,260.89L27.11,212.69L27.82,214L28.54,174.8L29.25,218.04L29.96,141.35L30.68,169.09L31.39,134.85L32.1,232.71L32.82,182.81L33.53,190.79L34.24,129.7L34.96,192.89L35.67,200.73L36.38,218.82L37.1,233.35L37.81,124.1L38.52,188.92L39.24,162.55L39.95,170.58L40.66,203.32L41.38,168L42.09,202.31L42.8,194.9L43.52,197.11L44.23,207.56L44.94,191.68L45.66,89.57L46.37,228.81L47.8,174.88L48.51,207.01L49.23,154.4L49.94,175.2L50.65,163.19L51.37,219.62L52.08,230.03L52.79,138.87L53.51,145.62L54.22,175.64L54.93,189.72L55.65,163.2L57.07,219.3L57.79,164.48L58.5,182.87L59.21,180.62L60.64,214.73L61.35,185.27L62.07,194.17L62.78,213.68L63.49,202.71L64.21,137.17L64.92,219.47L65.63,172.87L66.35,227.39L67.06,221.75L67.77,217.31L68.49,196.57L69.2,197.94L69.91,175.1L70.63,235.81L71.34,198.92L72.05,152.72L72.77,172.94L73.48,218.75L74.19,164.37L74.91,239.84L75.62,228.13L76.33,150.02L77.05,224.47L77.76,226.87L78.47,173.14L79.19,156.73L79.9,166.27L80.62,181.41L81.33,216.65L82.04,200.46L82.76,224.4L83.47,220.76L84.18,208.26L84.9,149.53L85.61,237.22L86.32,144.44L87.04,193.6L87.75,183L88.46,218.35L89.89,174.04L90.6,155.26L92.03,203.17L92.74,200.52L93.46,177.11L94.17,177.4L94.88,218.11L95.6,195.71L96.31,218.31L97.02,175.61L97.74,180.25L98.45,177.58L99.16,201.71L99.88,199.29L100.59,218.1L101.3,197.54L102.02,214.74L102.73,160.25L103.44,216.51L104.16,226.3L104.87,215.9L105.58,213.86L106.3,184.21L107.72,220.56L108.44,192.84L109.15,175.42L109.86,214.37L110.58,207.95L111.29,212.41L112,206.08L112.72,222.49L113.43,224.01L114.15,190.5L115.57,226.04L116.29,179.03L117.71,240.63L118.43,182.67L119.14,164.81L119.85,177.58L120.57,141.18L121.28,226.18L121.99,199.93L122.71,224.87L123.42,231.92L124.13,170.93L124.85,244.14L125.56,209.99L126.27,155.73L126.99,222.08L127.7,168L128.41,186.19L129.13,219.37L129.84,166.6L130.55,181.3L131.27,211.97L131.98,227.31L132.69,176.91L133.41,236.02L134.12,166.58L134.83,137.45L135.55,234.49L136.26,235.64L136.97,206.46L137.69,210.01L138.4,188.04L139.11,218.44L139.83,156.35L141.25,213.83L141.97,152.56L142.68,214.69L143.39,148.34L144.82,223.01L145.54,221.03L146.96,178.68L147.68,217.61L148.39,173.42L149.1,209.35L149.82,180.45L150.53,227.93L151.24,225.87L151.96,209.48L153.38,237.1L154.1,207.27L154.81,240.46L155.52,227.48L156.24,210.09L156.95,214.59L157.66,202.17L158.38,219.16L159.09,177.43L159.8,211.74L160.52,221.9L161.23,165.86L162.66,230.03L163.37,208.96L164.08,225.5L164.8,177.29L165.51,206.91L166.22,173.71L166.94,215.26L167.65,207.94L169.79,141.19L170.5,179.96L171.22,186.6L171.93,224.55L174.07,147.57L174.78,177.01L175.5,215.57L176.21,157.97L177.64,234.82L178.35,175.11L179.07,232.7L179.78,221.12L180.49,128.47L181.21,214.78L181.92,182.83L182.63,216.1L183.35,249.61L184.06,187.9L185.49,199L186.2,190.57L186.91,216.7L187.63,171.03L188.34,162.76L189.05,206.33L189.77,159.24L190.48,188.64L191.19,181.37L191.91,202.8L193.33,222.28L194.05,191.82L194.76,235.61L195.47,230.72L196.19,196.43L196.9,216.52L197.61,246.74L198.33,200.62L199.04,196.09L199.75,203.68L200.47,200.46L201.18,231.81L201.89,225.65L202.61,158.62L204.03,239.69L204.75,170.45L205.46,225.92L206.17,207.12L207.6,240.62L208.31,222.21L209.03,206.06L209.74,224.58L210.46,235.28L211.17,185.42L212.6,233.68L213.31,209.39L214.02,189.58L214.74,213.88L215.45,246.68L216.16,164.95L216.88,237.39L217.59,164.9L218.3,186L219.02,167.04L220.44,233.56L221.16,195.68L221.87,189.7L222.58,169.04L223.3,232.09L224.01,175.49L225.44,230.96L226.15,202.16L227.58,248.56L228.29,245.14L230.43,161.67L231.14,190.01L231.86,217.76L232.57,171.01L233.28,214.6L234,164.84L234.71,235.46L235.42,225.65L236.14,161.15L236.85,204.15L237.56,222.49L238.28,221.29L238.99,164.86L239.7,198.4L240.42,181.78L241.13,243.31L241.85,233.74L242.56,205.14L243.27,170.88L243.99,181.47L244.7,195.82L245.41,182.41L246.13,213.61L246.84,158.79L247.55,231.26L248.27,201.2L248.98,215.33L249.69,208.43L250.41,233.06L251.12,165.55L252.55,189.76L253.26,215.96L253.97,218.53L254.69,213.5L256.11,228.16L256.83,219.08L257.54,200.82L258.25,230.45L259.68,195.07L260.39,240.6L261.11,225.95L261.82,240.26L262.53,184.53L263.25,235.46L263.96,213.96L264.67,218.83L265.39,188.06L266.1,192.73L266.81,230.22L267.53,214.36L268.24,209.39L268.95,224.35L269.67,191.11L270.38,205.18L271.09,216.96L271.81,243.73L272.52,197.57L273.23,221.77L273.95,178.93L274.66,219.14L275.38,197.5L276.09,216.51L277.52,237.61L278.23,170.52L278.94,237.36L279.66,198.44L280.37,187.41L281.08,208.22L281.8,257.81L282.51,243.3L283.94,190.54L284.65,202.52L285.36,200.89L286.08,196.47L286.79,196.84L287.5,194.45L288.22,183.26L288.93,199.77L289.64,234.25L290.36,215.99L291.07,180.14L291.78,233.84L292.5,218.17L293.21,181.51L293.92,198.34L294.64,197.43L295.35,242.27L296.06,211.44L296.78,226.03L297.49,224.19L298.2,165.61L298.92,199.23L299.63,228.82L300.34,171.57L301.06,218.94L301.77,211.48L302.48,192.5L303.2,212.58L304.62,199.38L305.34,202.53L306.05,230.32L306.77,217.46L308.19,153.65L308.91,210.8L309.62,210.48L310.33,212.59L311.05,216.39L311.76,203.8L312.47,194.47L313.19,207.04L313.9,202.11L314.61,229.3L315.33,239.24L316.04,219.77L316.75,226.04L317.47,209.32L318.18,236.23L318.89,235.09L319.61,192.32L320.32,212.07L321.03,173.96L322.46,238.54L323.17,199.88L323.89,236.06L324.6,175.15L326.03,231.59L326.74,195.58L328.17,235.59L328.88,200.27L329.59,180.52L330.31,218.25L331.73,242.3L332.45,205.32L333.16,220.22L333.87,181.07L336.01,248.89L336.73,202.48L338.15,234L338.87,231.63L339.58,252.6L340.3,239.09L341.01,236.89L341.72,195.82L342.44,157.45L343.15,206.02L343.86,231.91L344.58,222.66L345.29,223.37L346,215.72L346.72,197.25L347.43,198.19L348.14,218.98L348.86,211.33L349.57,245.59L350.28,179.56L351,206.78L351.71,190.39L352.42,216.32L353.85,255.93L354.56,237.23L355.28,227.85L355.99,185.79L356.7,220.99L357.42,196.15L358.13,221.15L358.84,200.28L359.56,189.69L360.27,231.04L360.98,226.1L361.7,171.73L362.41,180.59L363.12,205.69L363.84,206.38L364.55,209.93L365.26,203.22L365.98,213.61L366.69,210.28L367.4,188.87L368.12,253.36L368.83,195.57L369.54,236.17L370.26,210.74L370.97,234.72L371.69,222.95L372.4,209.5L373.11,231.42L373.83,167.59L374.54,204.02L375.97,248.78L376.68,219.82L377.39,230.79L378.11,179.87L378.82,230.83L379.53,208.83L380.96,244.94L381.67,202.31L382.39,222.32L383.1,204.15L383.81,203.47L384.53,189.54L385.95,225.29L386.67,211.03L387.38,213.42L388.09,188.74L388.81,217.53L389.52,202.17L390.23,235.49L390.95,231.27L391.66,228.72L392.37,189.9L394.51,254.55L395.23,199.57L395.94,212.93L396.65,159.47L397.37,221.26L398.08,208.66L398.79,165.55L399.51,226.28L400.22,233.05L400.93,190.57L401.65,177.66L402.36,187.79L403.79,201.79L404.5,152.44L405.93,213.11L406.64,241.36L407.36,220.49L408.07,175.32L408.78,181.76L409.5,233.8L410.21,234.1L410.92,203.68L411.64,236.28L412.35,221.86L414.49,172.8L415.2,235.29L415.92,195.53L416.63,196.32L417.34,189.8L418.06,196.64L418.77,231.01L419.48,214.15L420.2,242.63L421.62,215.65L422.34,229.78L423.05,200.69L423.76,214.17L424.48,191.52L425.19,222.62L425.9,195.89L426.62,229.86L427.33,247.59L428.04,198.59L428.76,192.71L429.47,229.78L430.18,190.31L430.9,243.01L431.61,196.15L432.32,236.2L433.04,169.32L433.75,229.77L434.46,190.32L435.18,249.81L435.89,231.65L436.61,191.93L437.32,240.43L438.03,228.54L439.46,185.77L440.17,193.66L440.89,167.58L441.6,190.53L442.31,243.64L443.03,203.4L443.74,233.42L444.45,227.6L445.17,210.69L445.88,234.83L446.59,231.18L447.31,239.39L448.73,198.83L449.45,203.07L450.16,202.45L450.87,193.51L451.59,235.87L452.3,224.75L453.01,212.7L453.73,171.86L454.44,220.23L455.15,172.33L456.58,216.49L457.29,226.6L458.72,237.52L459.43,211.19L460.15,195.11L460.86,237.91L461.57,191.92L462.29,193.58L463,239.02L463.71,156.27L464.43,168.65L465.14,238.09L465.85,197.69L466.57,196.41L467.28,186.33L468,207.67L468.71,193.51L470.85,232.91L471.56,210.26L472.28,226.89L472.99,226.82L473.7,212.7L474.42,243.96L475.13,211.26L475.84,212.72L476.56,207.08L477.27,199.15L477.98,221.45L478.7,231.79L479.41,213.39L480.12,240.45L480.84,227.53L481.55,214.93L482.26,225.25L482.98,209.02L483.69,241.1L485.12,196.38L485.83,220.02L486.54,211.81L487.26,231.96L487.97,212.68L488.68,213.75L489.4,231.31L490.11,225.41L490.82,226.31L491.54,247.44L492.25,188.31L492.96,210.1L493.68,197.38L494.39,195.71L495.1,216.34L495.82,218.64L496.53,216.11L497.24,247.47L497.96,213.3L498.67,227.75L499.38,215.73L500.1,186.88L500.81,210.53L501.53,239.04L502.24,229.18L502.95,224.38L503.67,199.27L505.09,243.34L505.81,193.42L506.52,239.51L507.23,231.98L507.95,202.17L508.66,221.47L509.37,220.02L510.09,206.18L512.23,236.66L512.94,233.83L513.65,187.55L514.37,201.97L515.79,220.06L516.51,206.41L517.22,229.18L517.93,196.17L520.07,245.5L520.79,228.34L521.5,200.91L522.21,228.13L522.93,232.65L523.64,193.79L525.78,238.17L526.49,194.55L527.92,243.45L528.63,221.97L530.77,171.71L531.49,193.49L532.2,236.58L532.92,229.66L533.63,232.22L534.34,238.47L536.48,184.39L537.2,242.91L538.62,190.93L539.34,204.9L540.05,186.24L540.76,229.15L541.48,228.52L542.19,211.28L542.9,225.72L543.62,225.13L544.33,215.54L545.04,188.09L545.76,217.75L546.47,187.21L547.18,216.28L547.9,193.65L548.61,197.53L549.32,246.57L550.04,193.68L551.46,219.26L552.18,222.8L552.89,238.63L553.6,210.99L554.32,216.29L555.03,205.47L555.74,240.24L556.46,238.76L557.17,231.64L557.88,246.1L558.6,235.46L559.31,248.2L560.74,191.92L561.45,209.6L562.16,237.96L562.88,213.71L563.59,209.61L564.31,239.23L565.02,206.34L565.73,229.23L566.45,237.74L567.16,197.09L567.87,209.5L568.59,191.52L569.3,231.67L570.01,203.97L570.73,222.32L571.44,206.41L572.15,199.47L572.87,215.16L573.58,190.12L574.29,224.05L575.01,208.09L575.72,239.56L577.15,201.18L577.86,248.45L578.57,227.97L579.29,237.1L580,198.69" style="vector-effect: non-scaling-stroke; fill: none; stroke: rgb(31, 119, 180); stroke-opacity: 1; stroke-width: 2px; opacity: 1;"/></g><g class="points"/><g class="text"/></g></g></g><g class="overplot"/><path class="xlines-above crisp" d="M0,0" style="fill: none;"/><path class="ylines-above crisp" d="M0,0" style="fill: none;"/><g class="overlines-above"/><g class="xaxislayer-above"><g class="xtick"><text text-anchor="middle" x="0" y="403" transform="translate(60,0)" style="font-family: 'Open Sans', verdana, arial, sans-serif; font-size: 12px; fill: rgb(68, 68, 68); fill-opacity: 1; white-space: pre;">0</text></g><g class="xtick"><text text-anchor="middle" x="0" y="403" transform="translate(131.34,0)" style="font-family: 'Open Sans', verdana, arial, sans-serif; font-size: 12px; fill: rgb(68, 68, 68); fill-opacity: 1; white-space: pre;">100</text></g><g class="xtick"><text text-anchor="middle" x="0" y="403" transform="translate(202.68,0)" style="font-family: 'Open Sans', verdana, arial, sans-serif; font-size: 12px; fill: rgb(68, 68, 68); fill-opacity: 1; white-space: pre;">200</text></g><g class="xtick"><text text-anchor="middle" x="0" y="403" transform="translate(274.02,0)" style="font-family: 'Open Sans', verdana, arial, sans-serif; font-size: 12px; fill: rgb(68, 68, 68); fill-opacity: 1; white-space: pre;">300</text></g><g class="xtick"><text text-anchor="middle" x="0" y="403" transform="translate(345.36,0)" style="font-family: 'Open Sans', verdana, arial, sans-serif; font-size: 12px; fill: rgb(68, 68, 68); fill-opacity: 1; white-space: pre;">400</text></g><g class="xtick"><text text-anchor="middle" x="0" y="403" transform="translate(416.7,0)" style="font-family: 'Open Sans', verdana, arial, sans-serif; font-size: 12px; fill: rgb(68, 68, 68); fill-opacity: 1; white-space: pre;">500</text></g><g class="xtick"><text text-anchor="middle" x="0" y="403" transform="translate(488.04,0)" style="font-family: 'Open Sans', verdana, arial, sans-serif; font-size: 12px; fill: rgb(68, 68, 68); fill-opacity: 1; white-space: pre;">600</text></g><g class="xtick"><text text-anchor="middle" x="0" y="403" transform="translate(559.38,0)" style="font-family: 'Open Sans', verdana, arial, sans-serif; font-size: 12px; fill: rgb(68, 68, 68); fill-opacity: 1; white-space: pre;">700</text></g><g class="xtick"><text text-anchor="middle" x="0" y="403" transform="translate(630.73,0)" style="font-family: 'Open Sans', verdana, arial, sans-serif; font-size: 12px; fill: rgb(68, 68, 68); fill-opacity: 1; white-space: pre;">800</text></g></g><g class="yaxislayer-above"><g class="ytick"><text text-anchor="end" x="59" y="4.199999999999999" transform="translate(0,373.5)" style="font-family: 'Open Sans', verdana, arial, sans-serif; font-size: 12px; fill: rgb(68, 68, 68); fill-opacity: 1; white-space: pre;">0</text></g><g class="ytick"><text text-anchor="end" x="59" y="4.199999999999999" transform="translate(0,305.27)" style="font-family: 'Open Sans', verdana, arial, sans-serif; font-size: 12px; fill: rgb(68, 68, 68); fill-opacity: 1; white-space: pre;">2</text></g><g class="ytick"><text text-anchor="end" x="59" y="4.199999999999999" transform="translate(0,237.05)" style="font-family: 'Open Sans', verdana, arial, sans-serif; font-size: 12px; fill: rgb(68, 68, 68); fill-opacity: 1; white-space: pre;">4</text></g><g class="ytick"><text text-anchor="end" x="59" y="4.199999999999999" transform="translate(0,168.82)" style="font-family: 'Open Sans', verdana, arial, sans-serif; font-size: 12px; fill: rgb(68, 68, 68); fill-opacity: 1; white-space: pre;">6</text></g><g class="ytick"><text text-anchor="end" x="59" y="4.199999999999999" transform="translate(0,100.6)" style="font-family: 'Open Sans', verdana, arial, sans-serif; font-size: 12px; fill: rgb(68, 68, 68); fill-opacity: 1; white-space: pre;">8</text></g></g><g class="overaxes-above"/></g></g><g class="polarlayer"/><g class="ternarylayer"/><g class="geolayer"/><g class="pielayer"/><g class="glimages"/><defs id="topdefs-15160f"><g class="clips"/></defs><g class="layer-above"><g class="imagelayer"/><g class="shapelayer"/></g><g class="infolayer"><g class="g-gtitle"><text class="gtitle" x="350" y="30" text-anchor="middle" dy="0em" style="font-family: 'Open Sans', verdana, arial, sans-serif; font-size: 17px; fill: rgb(68, 68, 68); opacity: 1; font-weight: normal; white-space: pre;">train loss</text></g><g class="g-xtitle"/><g class="g-ytitle"/></g></svg>